# xmcd
#
# Track frame offsets: 
#        150
#        24152
#        39418
#        60930
#        80541
#        97810
#        113222
#        128906
#        148392
#        168954
#        188718
#        205578
#        230373
#        247378
#        272770
#
# Disc length: 4030 seconds
#
# Revision: 0
# Processed by: cddbd v1.5.2PL0 Copyright (c) Steve Scherf et al.
# Submitted via: ExactAudioCopy v0.99pb3
#
DISCID=c60fbc0f
DTITLE=Bonita And Band - Bonita Live Unplugged
DYEAR=2006
DGENRE=Soul
TTITLE0=Super duper love
TTITLE1=On my way
TTITLE2=Crazy
TTITLE3=Long time gone
TTITLE4=On the other side
TTITLE5=Knock three times
TTITLE6=Some days you gotta dance
TTITLE7=Sweet child o' mine
TTITLE8=Son of a preacherman
TTITLE9=Goodbye earl
TTITLE10=Landy
TTITLE11=Summertime
TTITLE12=Dead end sign
TTITLE13=Over my shoulder
TTITLE14=Free fallin'
EXTD=
EXTT0=
EXTT1=
EXTT2=
EXTT3=
EXTT4=
EXTT5=
EXTT6=
EXTT7=
EXTT8=
EXTT9=
EXTT10=
EXTT11=
EXTT12=
EXTT13=
EXTT14=
PLAYORDER=
